<?xml version="1.0" standalone="no"?>
<!DOCTYPE svg PUBLIC "-//W3C//DTD SVG 20010904//EN"
 "http://www.w3.org/TR/2001/REC-SVG-20010904/DTD/svg10.dtd">
<svg version="1.0" xmlns="http://www.w3.org/2000/svg"
 width="512.000000pt" height="512.000000pt" viewBox="0 0 512.000000 512.000000"
 preserveAspectRatio="xMidYMid meet">

<g transform="translate(0.000000,512.000000) scale(0.100000,-0.100000)"
fill="#000000" stroke="none">
<path d="M3150 4511 c-125 -38 -228 -157 -246 -283 l-6 -48 -1187 0 c-1308 0
-1247 3 -1379 -64 -147 -74 -239 -181 -306 -356 -21 -55 -21 -57 -24 -1330 -2
-887 1 -1295 8 -1340 6 -38 30 -103 55 -157 75 -154 202 -262 367 -310 l80
-23 1323 0 1323 0 80 23 c159 46 291 156 362 301 67 136 70 159 70 712 l0 492
163 4 c199 5 250 21 332 103 76 76 97 136 103 293 l4 122 327 0 c322 0 327 1
377 24 164 76 192 301 52 420 -71 61 -103 66 -450 66 l-308 0 0 170 0 170 319
0 c344 0 367 3 435 55 18 14 46 49 62 77 24 45 29 64 29 123 -1 104 -51 186
-142 231 -35 17 -68 19 -369 22 l-331 3 -5 122 c-6 154 -32 221 -115 297 -98
90 -101 90 -571 89 -224 0 -418 -4 -432 -8z m843 -175 c43 -17 84 -67 97 -116
7 -26 10 -326 8 -912 -3 -836 -4 -875 -22 -911 -11 -22 -37 -51 -59 -65 l-40
-27 -368 -3 c-237 -2 -382 1 -407 7 -53 15 -91 46 -113 95 -18 39 -19 86 -19
916 0 540 4 888 10 909 11 39 41 75 85 102 28 18 57 19 413 19 301 0 390 -3
415 -14z m-1091 -1133 l3 -808 26 -55 c49 -106 128 -171 238 -196 32 -8 115
-14 194 -14 l137 0 0 -488 c0 -406 -3 -498 -15 -547 -39 -148 -139 -256 -284
-305 -60 -20 -79 -20 -1365 -20 -1234 0 -1307 1 -1363 18 -150 47 -263 173
-293 327 -6 33 -10 103 -8 155 l3 95 202 5 c184 5 204 7 229 26 62 46 69 64
72 206 2 71 1 141 -2 154 -10 39 -74 103 -114 114 -21 5 -117 10 -214 10
l-178 0 0 125 0 125 173 0 c191 0 232 7 281 50 52 46 58 71 54 223 -3 118 -6
139 -24 163 -54 73 -94 83 -316 84 l-168 0 0 125 0 125 187 0 c220 0 254 10
299 86 25 42 25 48 22 183 -3 152 -9 168 -72 215 -25 19 -44 21 -232 24 l-204
3 0 107 c0 175 38 279 135 371 55 52 131 96 192 110 21 5 570 9 1220 10 l1182
1 3 -807z m2019 608 c17 -18 29 -40 29 -56 0 -16 -12 -38 -29 -56 l-29 -29
-311 0 -311 0 0 85 0 85 311 0 311 0 29 -29z m-4411 -656 l0 -85 -170 0 -170
0 0 85 0 85 170 0 170 0 0 -85z m4417 -199 c20 -24 24 -36 19 -65 -11 -71 -11
-71 -362 -71 l-314 0 0 85 0 86 316 -3 316 -3 25 -29z m-4417 -571 l0 -85
-170 0 -170 0 0 85 0 85 170 0 170 0 0 -85z m0 -760 l0 -85 -170 0 -170 0 0
85 0 85 170 0 170 0 0 -85z"/>
</g>
</svg>

